<mxfile host="app.diagrams.net" modified="2021-09-06T01:23:02.616Z" agent="5.0 (Windows NT 10.0; Win64; x64) AppleWebKit/537.36 (KHTML, like Gecko) Chrome/93.0.4577.63 Safari/537.36" etag="pUm2WmoXAfD5jevml1Uw" version="15.0.6" type="github">
  <diagram id="Lt5d1Jk3WITf66Sj225D" name="Page-1">
    <mxGraphModel dx="1422" dy="794" grid="1" gridSize="10" guides="1" tooltips="1" connect="1" arrows="1" fold="1" page="1" pageScale="1" pageWidth="850" pageHeight="1100" math="0" shadow="0">
      <root>
        <mxCell id="0" />
        <mxCell id="1" parent="0" />
        <mxCell id="p8ouwrn4z9fZp3xGVTwj-5" style="edgeStyle=orthogonalEdgeStyle;rounded=0;orthogonalLoop=1;jettySize=auto;html=1;entryX=0.5;entryY=0;entryDx=0;entryDy=0;" edge="1" parent="1" source="p8ouwrn4z9fZp3xGVTwj-1" target="p8ouwrn4z9fZp3xGVTwj-4">
          <mxGeometry relative="1" as="geometry" />
        </mxCell>
        <mxCell id="p8ouwrn4z9fZp3xGVTwj-1" value="ETH/TEK&lt;br&gt;Sushi LP" style="rhombus;whiteSpace=wrap;html=1;" vertex="1" parent="1">
          <mxGeometry x="290" y="40" width="120" height="80" as="geometry" />
        </mxCell>
        <mxCell id="p8ouwrn4z9fZp3xGVTwj-2" value="" style="endArrow=classic;html=1;" edge="1" parent="1">
          <mxGeometry width="50" height="50" relative="1" as="geometry">
            <mxPoint x="424" y="120" as="sourcePoint" />
            <mxPoint x="424" y="40" as="targetPoint" />
            <Array as="points">
              <mxPoint x="424" y="75" />
            </Array>
          </mxGeometry>
        </mxCell>
        <mxCell id="p8ouwrn4z9fZp3xGVTwj-3" value="" style="endArrow=classic;html=1;" edge="1" parent="1">
          <mxGeometry width="50" height="50" relative="1" as="geometry">
            <mxPoint x="280" y="40" as="sourcePoint" />
            <mxPoint x="280" y="120" as="targetPoint" />
          </mxGeometry>
        </mxCell>
        <mxCell id="p8ouwrn4z9fZp3xGVTwj-8" style="edgeStyle=orthogonalEdgeStyle;rounded=0;orthogonalLoop=1;jettySize=auto;html=1;entryX=0.5;entryY=0;entryDx=0;entryDy=0;" edge="1" parent="1" source="p8ouwrn4z9fZp3xGVTwj-4" target="p8ouwrn4z9fZp3xGVTwj-6">
          <mxGeometry relative="1" as="geometry" />
        </mxCell>
        <mxCell id="p8ouwrn4z9fZp3xGVTwj-9" style="edgeStyle=orthogonalEdgeStyle;rounded=0;orthogonalLoop=1;jettySize=auto;html=1;" edge="1" parent="1" source="p8ouwrn4z9fZp3xGVTwj-4" target="p8ouwrn4z9fZp3xGVTwj-7">
          <mxGeometry relative="1" as="geometry" />
        </mxCell>
        <mxCell id="p8ouwrn4z9fZp3xGVTwj-4" value="ETH/TEK&lt;br&gt;LP" style="ellipse;whiteSpace=wrap;html=1;aspect=fixed;" vertex="1" parent="1">
          <mxGeometry x="310" y="170" width="80" height="80" as="geometry" />
        </mxCell>
        <mxCell id="p8ouwrn4z9fZp3xGVTwj-14" style="edgeStyle=orthogonalEdgeStyle;rounded=0;orthogonalLoop=1;jettySize=auto;html=1;entryX=0.5;entryY=0;entryDx=0;entryDy=0;" edge="1" parent="1" source="p8ouwrn4z9fZp3xGVTwj-6" target="p8ouwrn4z9fZp3xGVTwj-11">
          <mxGeometry relative="1" as="geometry" />
        </mxCell>
        <mxCell id="p8ouwrn4z9fZp3xGVTwj-6" value="ETH" style="ellipse;whiteSpace=wrap;html=1;aspect=fixed;" vertex="1" parent="1">
          <mxGeometry x="200" y="260" width="80" height="80" as="geometry" />
        </mxCell>
        <mxCell id="p8ouwrn4z9fZp3xGVTwj-13" style="edgeStyle=orthogonalEdgeStyle;rounded=0;orthogonalLoop=1;jettySize=auto;html=1;entryX=0.5;entryY=0;entryDx=0;entryDy=0;" edge="1" parent="1" source="p8ouwrn4z9fZp3xGVTwj-7" target="p8ouwrn4z9fZp3xGVTwj-12">
          <mxGeometry relative="1" as="geometry" />
        </mxCell>
        <mxCell id="p8ouwrn4z9fZp3xGVTwj-7" value="TEK" style="ellipse;whiteSpace=wrap;html=1;aspect=fixed;" vertex="1" parent="1">
          <mxGeometry x="425" y="260" width="80" height="80" as="geometry" />
        </mxCell>
        <mxCell id="p8ouwrn4z9fZp3xGVTwj-11" value="ETH Treasury Pool" style="rounded=0;whiteSpace=wrap;html=1;" vertex="1" parent="1">
          <mxGeometry x="180" y="380" width="120" height="60" as="geometry" />
        </mxCell>
        <mxCell id="p8ouwrn4z9fZp3xGVTwj-12" value="TEK Treasury Pool" style="rounded=0;whiteSpace=wrap;html=1;" vertex="1" parent="1">
          <mxGeometry x="405" y="380" width="120" height="60" as="geometry" />
        </mxCell>
        <mxCell id="p8ouwrn4z9fZp3xGVTwj-17" value="" style="endArrow=classic;html=1;" edge="1" parent="1">
          <mxGeometry width="50" height="50" relative="1" as="geometry">
            <mxPoint x="160" y="440" as="sourcePoint" />
            <mxPoint x="160" y="380" as="targetPoint" />
          </mxGeometry>
        </mxCell>
        <mxCell id="p8ouwrn4z9fZp3xGVTwj-18" value="" style="endArrow=classic;html=1;" edge="1" parent="1">
          <mxGeometry width="50" height="50" relative="1" as="geometry">
            <mxPoint x="550" y="380" as="sourcePoint" />
            <mxPoint x="550" y="440" as="targetPoint" />
            <Array as="points" />
          </mxGeometry>
        </mxCell>
        <mxCell id="p8ouwrn4z9fZp3xGVTwj-19" value="$TEK Liquidation" style="text;html=1;align=center;verticalAlign=middle;resizable=0;points=[];autosize=1;strokeColor=none;fillColor=none;" vertex="1" parent="1">
          <mxGeometry x="295" y="10" width="110" height="20" as="geometry" />
        </mxCell>
      </root>
    </mxGraphModel>
  </diagram>
</mxfile>
